<?xml version="1.0" encoding="UTF-8" standalone="no"?>
<svg viewBox="0 0 64 64" version="1.1" width="64" height="64">


   <g transform="matrix(0.35,0,0,0.325,31.4,34.33)">
      <path fill="#333333" d="m -32,-25 c -3,7 -24,29 -22,51 8,92 36,30 78,53 0,0 75,-42 15,-110 -17,-24 -2,-43 -13,-59 -11,-16 -30,-17 -44,-2 -14,15 6,37 -14,67" />
      <path fill="#eeeeee" d="m 42,21 c 0,0 9,-18 -8,-31 16,17 6,32 6,32 H 37 C 36,-13 27,6 14,-56 29,-73 0,-88 0,-60 h -9 c 1,-24 -20,-12 -8,5 -1,37 -23,52 -23,78 -7,-18 6,-32 6,-32 0,0 -18,15 -7,37 11,22 31,17 17,27 22,15 56,5 55,-27 1,-8 22,-5 24,-3 2,2 -3,-4 -13,-4 m -56,-78 c -7,-2 -5,-11 -2,-11 3,0 8,7 2,11 m 19,1 c -5,-7 -1,-14 4,-13 5,1 5,13 -4,13" />
      <g fill="#ffcc22" stroke="#333333">
         <path d="m -41,31 21,30 c 11,7 5,35 -25,21 -17,-5 -31,-4 -33,-13 -2,-9 4,-10 3,-14 -4,-22 14,-11 19,-22 5,-11 5,-16 15,-2 M 71,45 C 67,39 71,28 57,29 51,41 34,53 33,29 23,29 30,53 26,64 17,91 43,93 54,80 L 80,62 c 2,-3 5,-6 -9,-17 m -92,-92 c -3,-6 11,-14 16,-14 5,0 12,4 19,6 7,2 4,9 2,10 -2,1 -13,10 -21,10 -8,0 -10,-8 -16,-12" />
         <path d="m -21,-48 c 8,6 17,11 35,-3" />
      </g>
      <path d="m -10,-54 c -2,0 1,-2 2,-1 m 7,1 c 1,-1 -1,-2 -3,-1" />
   </g>
</svg>