<?xml version="1.0" encoding="UTF-8" standalone="no"?>
<svg viewBox="0 0 64 64" width="64" height="64" preserveAspectRatio="xMidYMid" version="1.1" id="svg20"
   sodipodi:docname="icon.svg" inkscape:version="1.3.2 (091e20ef0f, 2023-11-25, custom)"
   xmlns:inkscape="http://www.inkscape.org/namespaces/inkscape"
   xmlns:sodipodi="http://sodipodi.sourceforge.net/DTD/sodipodi-0.dtd" xmlns:xlink="http://www.w3.org/1999/xlink"
   xmlns="http://www.w3.org/2000/svg" xmlns:svg="http://www.w3.org/2000/svg">
   <sodipodi:namedview id="namedview20" pagecolor="#ffffff" bordercolor="#000000" borderopacity="0.25"
      inkscape:showpageshadow="2" inkscape:pageopacity="0.0" inkscape:pagecheckerboard="0" inkscape:deskcolor="#d1d1d1"
      showgrid="false" inkscape:zoom="6.814536" inkscape:cx="28.248438" inkscape:cy="23.185731"
      inkscape:window-width="1366" inkscape:window-height="731" inkscape:window-x="0" inkscape:window-y="0"
      inkscape:window-maximized="1" inkscape:current-layer="svg20" />
   <defs id="defs3">
      <clipPath id="__lottie_element_10">
         <rect width="430" height="430" x="0" y="0" id="rect1" />
      </clipPath>
      <clipPath id="__lottie_element_12">
         <path d="M 0,0 H 430 V 430 H 0 Z" id="path1" />
      </clipPath>
      <g id="__lottie_element_22">
         <g transform="matrix(-0.89999998,0,0,-0.89999998,215,215)" opacity="1" style="display:block" id="g3">
            <path fill="#3a3347" fill-opacity="1"
               d="M 0,-118.333 C 65.353996,-118.333 118.333,-65.353996 118.333,0 118.333,65.353996 65.353996,118.333 0,118.333 -65.353996,118.333 -118.333,65.353996 -118.333,0 -118.333,-65.353996 -65.353996,-118.333 0,-118.333 Z M 167.381,33.778999 c 0,0 -9.732,-5.618999 -9.732,-5.618999 1.622,-9.142 2.47,-18.5520002 2.47,-28.16 0,-9.6079998 -0.848,-19.018 -2.47,-28.16 0,0 9.732,-5.618999 9.732,-5.618999 11.899,-6.869999 15.97599,-22.084999 9.106,-33.984001 0,0 -29.55901,-51.197 -29.55901,-51.197 -6.86999,-11.898 -22.08499,-15.975 -33.98399,-9.10599 0,0 -9.762,5.63599 -9.762,5.63599 -14.32,-12.081 -30.782998,-21.69801 -48.745,-28.191 0,0 0,-11.224 0,-11.224 0,-13.74001 -11.138,-24.87801 -24.878,-24.87801 0,0 -59.118,0 -59.118,0 -13.74,0 -24.878,11.138 -24.878,24.87801 0,0 0,11.224 0,11.224 -17.962002,6.49299 -34.425,16.11 -48.745,28.191 0,0 -9.762,-5.63599 -9.762,-5.63599 -11.899,-6.86901 -27.114,-2.79201 -33.98399,9.10599 0,0 -29.55901,51.197 -29.55901,51.197 -6.86999,11.899002 -2.793,27.114002 9.106,33.984001 0,0 9.732,5.618999 9.732,5.618999 -1.622,9.142 -2.47,18.5520002 -2.47,28.16 0,9.6079998 0.848,19.018 2.47,28.16 0,0 -9.732,5.618999 -9.732,5.618999 -11.899,6.869999 -15.97599,22.084999 -9.106,33.984001 0,0 29.55901,51.197 29.55901,51.197 6.86999,11.89899 22.08499,15.976 33.98399,9.10599 0,0 9.762,-5.63599 9.762,-5.63599 14.32,12.081 30.782998,21.69801 48.745,28.191 0,0 0,11.224 0,11.224 0,13.74001 11.138,24.87801 24.878,24.87801 0,0 59.118,0 59.118,0 13.74,0 24.878,-11.138 24.878,-24.87801 0,0 0,-11.224 0,-11.224 17.962002,-6.49299 34.425,-16.11 48.745,-28.191 0,0 9.762,5.63599 9.762,5.63599 11.899,6.87001 27.114,2.793 33.98399,-9.10599 0,0 29.55901,-51.197 29.55901,-51.197 6.86999,-11.899002 2.793,-27.114002 -9.106,-33.984001 z"
               id="path2" />
            <g opacity="1" id="g2" />
         </g>
      </g>
      <mask id="__lottie_element_22_1" mask-type="alpha">
         <use xlink:href="#__lottie_element_22" id="use3" />
      </mask>
   </defs>
   <g clip-path="url(#__lottie_element_10)" id="g20"
      transform="matrix(0.18613635,0,0,0.17942337,-8.0193143,-6.5760256)">
      <g clip-path="url(#__lottie_element_12)" opacity="1" style="display:block" id="g19">
         <g transform="matrix(-0.89999998,0,0,-0.89999998,215,215)" opacity="1" style="display:block" id="g5">
            <path class="secondary" fill="#3a3347" fill-opacity="1"
               d="M 0,-118.333 C 65.353996,-118.333 118.333,-65.353996 118.333,0 118.333,65.353996 65.353996,118.333 0,118.333 -65.353996,118.333 -118.333,65.353996 -118.333,0 -118.333,-65.353996 -65.353996,-118.333 0,-118.333 Z M 167.381,33.778999 c 0,0 -9.732,-5.618999 -9.732,-5.618999 1.622,-9.142 2.47,-18.5520002 2.47,-28.16 0,-9.6079998 -0.848,-19.018 -2.47,-28.16 0,0 9.732,-5.618999 9.732,-5.618999 11.899,-6.869999 15.97599,-22.084999 9.106,-33.984001 0,0 -29.55901,-51.197 -29.55901,-51.197 -6.86999,-11.898 -22.08499,-15.975 -33.98399,-9.10599 0,0 -9.762,5.63599 -9.762,5.63599 -14.32,-12.081 -30.782998,-21.69801 -48.745,-28.191 0,0 0,-11.224 0,-11.224 0,-13.74001 -11.138,-24.87801 -24.878,-24.87801 0,0 -59.118,0 -59.118,0 -13.74,0 -24.878,11.138 -24.878,24.87801 0,0 0,11.224 0,11.224 -17.962002,6.49299 -34.425,16.11 -48.745,28.191 0,0 -9.762,-5.63599 -9.762,-5.63599 -11.899,-6.86901 -27.114,-2.79201 -33.98399,9.10599 0,0 -29.55901,51.197 -29.55901,51.197 -6.86999,11.899002 -2.793,27.114002 9.106,33.984001 0,0 9.732,5.618999 9.732,5.618999 -1.622,9.142 -2.47,18.5520002 -2.47,28.16 0,9.6079998 0.848,19.018 2.47,28.16 0,0 -9.732,5.618999 -9.732,5.618999 -11.899,6.869999 -15.97599,22.084999 -9.106,33.984001 0,0 29.55901,51.197 29.55901,51.197 6.86999,11.89899 22.08499,15.976 33.98399,9.10599 0,0 9.762,-5.63599 9.762,-5.63599 14.32,12.081 30.782998,21.69801 48.745,28.191 0,0 0,11.224 0,11.224 0,13.74001 11.138,24.87801 24.878,24.87801 0,0 59.118,0 59.118,0 13.74,0 24.878,-11.138 24.878,-24.87801 0,0 0,-11.224 0,-11.224 17.962002,-6.49299 34.425,-16.11 48.745,-28.191 0,0 9.762,5.63599 9.762,5.63599 11.899,6.87001 27.114,2.793 33.98399,-9.10599 0,0 29.55901,-51.197 29.55901,-51.197 6.86999,-11.899002 2.793,-27.114002 -9.106,-33.984001 z"
               id="path3" />
            <g opacity="1" id="g4" />
         </g>
         <g mask="url(#__lottie_element_22_1)" style="display:block" id="g8">
            <g transform="translate(97,9)" opacity="1" id="g7">
               <g opacity="1" transform="translate(66.25,116.25)" id="g6">
                  <path class="secondary" fill="#3a3347" fill-opacity="1"
                     d="m 51.75,-99.75 c 0,0 -0.25,422.5 -0.25,422.5 0,0 -239,-0.25 -239,-0.25 0,0 0.25,-422.5 0.25,-422.5 z"
                     id="path5" />
                  <path class="secondary" fill="#3a3347" fill-opacity="0.5"
                     d="m 51.75,-99.75 c 0,0 -0.25,422.5 -0.25,422.5 0,0 -239,-0.25 -239,-0.25 0,0 0.25,-422.5 0.25,-422.5 z"
                     style="mix-blend-mode:multiply" id="path6" />
               </g>
            </g>
         </g>
         <g transform="translate(-35,-35)" opacity="1" style="display:block" id="g14">
            <g opacity="1" transform="translate(268.522,250)" id="g9">
               <path stroke-linecap="round" stroke-linejoin="round" fill-opacity="0" class="primary" stroke="#121331"
                  stroke-opacity="1" stroke-width="10.5"
                  d="m -18.552999,26.686001 c 0,0 0,-53.371 0,-53.371 0,0 0.002,-10e-4 0.002,-10e-4 0,0 19.9730011,0 19.9730011,0 9.4609999,0 17.1309989,7.67 17.1309989,17.1310007 0,0 0,0 0,0 0,9.4610003 -7.669999,17.1310005 -17.1309989,17.1310005 0,0 -19.9730011,0 -19.9730011,0"
                  id="path8" />
            </g>
            <g opacity="1" transform="translate(310.26199,250.049)" id="g10">
               <path stroke-linecap="round" stroke-linejoin="round" fill-opacity="0" class="primary" stroke="#121331"
                  stroke-opacity="1" stroke-width="10.5" d="m 0,26.638 c 0,0 0,-53.276 0,-53.276" id="path9" />
            </g>
            <g opacity="1" id="g13">
               <g opacity="1" transform="translate(204.561,250)" id="g11">
                  <path stroke-linecap="round" stroke-linejoin="round" fill-opacity="0" class="primary" stroke="#121331"
                     stroke-opacity="1" stroke-width="10.5"
                     d="m 22.573,26.687 c 0,0 -13.658,-53.374 -13.658,-53.374 0,0 -16.1549998,0 -16.1549998,0 0,0 -15.3330002,53.374 -15.3330002,53.374"
                     id="path10" />
               </g>
               <g opacity="1" transform="translate(204.758,264.15201)" id="g12">
                  <path stroke-linecap="round" stroke-linejoin="round" fill-opacity="0" class="primary" stroke="#121331"
                     stroke-opacity="1" stroke-width="10.5" d="m -18.889999,0 c 0,0 37.779998,0 37.779998,0"
                     id="path11" />
               </g>
            </g>
         </g>
         <g transform="translate(215,215)" opacity="1" style="display:block" id="g16">
            <g opacity="1" id="g15">
               <path stroke-linecap="round" stroke-linejoin="round" fill-opacity="0" class="primary" stroke="#121331"
                  stroke-opacity="1" stroke-width="10.5"
                  d="M 0,-106.746 C 58.953999,-106.746 106.746,-58.953999 106.746,0 106.746,58.953999 58.953999,106.746 0,106.746 -58.953999,106.746 -106.746,58.953999 -106.746,0 -106.746,-58.953999 -58.953999,-106.746 0,-106.746 Z"
                  id="path14" />
            </g>
         </g>
         <g transform="matrix(-0.89999998,0,0,-0.89999998,215,215)" opacity="1" style="display:block" id="g18">
            <g opacity="1" id="g17">
               <path stroke-linecap="round" stroke-linejoin="round" fill-opacity="0" class="primary" stroke="#121331"
                  stroke-opacity="1" stroke-width="10.5"
                  d="m 167.381,33.778999 c 0,0 -9.732,-5.618999 -9.732,-5.618999 1.622,-9.142 2.47,-18.5520002 2.47,-28.16 0,-9.6079998 -0.848,-19.018 -2.47,-28.16 0,0 9.732,-5.618999 9.732,-5.618999 11.899,-6.869999 15.97599,-22.084999 9.106,-33.984001 0,0 -29.55901,-51.197 -29.55901,-51.197 -6.86999,-11.898 -22.08499,-15.975 -33.98399,-9.10599 0,0 -9.762,5.63599 -9.762,5.63599 -14.32,-12.081 -30.782998,-21.69801 -48.745,-28.191 0,0 0,-11.224 0,-11.224 0,-13.74001 -11.138,-24.87801 -24.878,-24.87801 0,0 -59.118,0 -59.118,0 -13.74,0 -24.878,11.138 -24.878,24.87801 0,0 0,11.224 0,11.224 -17.962002,6.49299 -34.425,16.11 -48.745,28.191 0,0 -9.762,-5.63599 -9.762,-5.63599 -11.899,-6.86901 -27.114,-2.79201 -33.98399,9.10599 0,0 -29.55901,51.197 -29.55901,51.197 -6.86999,11.899002 -2.793,27.114002 9.106,33.984001 0,0 9.732,5.618999 9.732,5.618999 -1.622,9.142 -2.47,18.5520002 -2.47,28.16 0,9.6079998 0.848,19.018 2.47,28.16 0,0 -9.732,5.618999 -9.732,5.618999 -11.899,6.869999 -15.97599,22.084999 -9.106,33.984001 0,0 29.55901,51.197 29.55901,51.197 6.86999,11.89899 22.08499,15.976 33.98399,9.10599 0,0 9.762,-5.63599 9.762,-5.63599 14.32,12.081 30.782998,21.69801 48.745,28.191 0,0 0,11.224 0,11.224 0,13.74001 11.138,24.87801 24.878,24.87801 0,0 59.118,0 59.118,0 13.74,0 24.878,-11.138 24.878,-24.87801 0,0 0,-11.224 0,-11.224 17.962002,-6.49299 34.425,-16.11 48.745,-28.191 0,0 9.762,5.63599 9.762,5.63599 11.899,6.87001 27.114,2.793 33.98399,-9.10599 0,0 29.55901,-51.197 29.55901,-51.197 6.86999,-11.899002 2.793,-27.114002 -9.106,-33.984001 z"
                  id="path16" />
            </g>
         </g>
      </g>
   </g>
   <ellipse fill="none" stroke="#00df00" stroke-width="1" id="path20" cx="32" cy="32" rx="18" ry="18" />
   <ellipse fill="none" stroke="#00df00" stroke-width="1" id="path20" cx="32" cy="32" rx="28" ry="28" />


   <rect fill="none" stroke-width="1" stroke="#0000df" width="20" height="62" x="22" y="0.5" rx="4" ry="4" />

   <rect fill="none" stroke-width="1" stroke="#0000df" width="20" height="64" x="22" y="0" rx="4" ry="4"
      transform="rotate(62,32,32)" />
   <rect fill="none" stroke-width="1" stroke="#0000df" width="20" height="64" x="22" y="0" rx="4" ry="4"
      transform="rotate(298,32,32)" />

</svg>